# xmcd CD database file
#
# Track frame offsets:
#	150
#	19725
#	40362
#
# Disc length: 769 seconds
#
# Revision: 0
# Processed by: cddbd v1.5PL3 Copyright (c) Steve Scherf et al.
# Submitted via: CDex 1.50beta9
#
DISCID=1d02ff03
DTITLE=Plastic Tree - 散リユク僕ラ
DYEAR=2001
DGENRE=Pop
TTITLE0=散リユク僕ラ
TTITLE1=ギチギチ
TTITLE2=プラットホーム
EXTD=YEAR: 2001
EXTT0=
EXTT1=
EXTT2=
PLAYORDER=
